# Blender 5.1.2
# www.blender.org
mtllib CircularPlatform.mtl
o Cylinder
v -0.000000 -0.223489 -7.630095
v 1.488558 -0.223489 -7.483485
v 2.919911 -0.223489 -7.049289
v 4.239054 -0.223489 -6.344192
v 5.395292 -0.223489 -5.395292
v 6.344193 -0.223489 -4.239054
v 7.049289 -0.223489 -2.919911
v 7.483485 -0.223489 -1.488558
v 7.630095 -0.223489 -0.000000
v 7.483485 -0.223489 1.488558
v 7.049289 -0.223489 2.919911
v 6.344192 -0.223489 4.239054
v 5.395292 -0.223489 5.395292
v 4.239054 -0.223489 6.344193
v 2.919911 -0.223489 7.049289
v 1.488558 -0.223489 7.483485
v -0.000000 -0.223489 7.630095
v -1.488558 -0.223489 7.483485
v -2.919911 -0.223489 7.049289
v -4.239054 -0.223489 6.344193
v -5.395292 -0.223489 5.395292
v -6.344192 -0.223489 4.239054
v -7.049289 -0.223489 2.919911
v -7.483485 -0.223489 1.488558
v -7.630095 -0.223489 0.000000
v -7.483485 -0.223489 -1.488558
v -7.049289 -0.223489 -2.919911
v -6.344192 -0.223489 -4.239054
v -5.395292 -0.223489 -5.395292
v -4.239054 -0.223489 -6.344193
v -2.919911 -0.223489 -7.049289
v -1.488558 -0.223489 -7.483485
v -0.000000 0.296815 -4.328498
v -0.000000 0.108443 -7.535028
v 0.844448 0.296815 -4.245327
v 1.470011 0.108443 -7.390244
v 1.656445 0.296815 -3.999010
v 2.883530 0.108443 -6.961457
v 2.404785 0.296815 -3.599014
v 4.186237 0.108443 -6.265146
v 3.060710 0.296815 -3.060710
v 5.328069 0.108443 -5.328069
v 3.599014 0.296815 -2.404785
v 6.265146 0.108443 -4.186237
v 3.999010 0.296815 -1.656445
v 6.961457 0.108443 -2.883530
v 4.245327 0.296815 -0.844448
v 7.390244 0.108443 -1.470011
v 4.328498 0.296815 0.000000
v 7.535028 0.108443 0.000000
v 4.245327 0.296815 0.844448
v 7.390244 0.108443 1.470011
v 3.999010 0.296815 1.656445
v 6.961457 0.108443 2.883530
v 3.599014 0.296815 2.404785
v 6.265146 0.108443 4.186237
v 3.060710 0.296815 3.060710
v 5.328069 0.108443 5.328069
v 2.404785 0.296815 3.599014
v 4.186237 0.108443 6.265146
v 1.656445 0.296815 3.999010
v 2.883530 0.108443 6.961457
v 0.844448 0.296815 4.245327
v 1.470011 0.108443 7.390244
v -0.000000 0.296815 4.328498
v -0.000000 0.108443 7.535028
v -0.844448 0.296815 4.245327
v -1.470011 0.108443 7.390244
v -1.656445 0.296815 3.999011
v -2.883530 0.108443 6.961457
v -2.404785 0.296815 3.599014
v -4.186237 0.108443 6.265146
v -3.060711 0.296815 3.060710
v -5.328069 0.108443 5.328069
v -3.599015 0.296815 2.404785
v -6.265146 0.108443 4.186237
v -3.999011 0.296815 1.656445
v -6.961457 0.108443 2.883530
v -4.245327 0.296815 0.844448
v -7.390244 0.108443 1.470011
v -4.328498 0.296815 -0.000000
v -7.535028 0.108443 -0.000000
v -4.245327 0.296815 -0.844448
v -7.390244 0.108443 -1.470011
v -3.999010 0.296815 -1.656445
v -6.961457 0.108443 -2.883530
v -3.599015 0.296815 -2.404785
v -6.265146 0.108443 -4.186237
v -3.060711 0.296815 -3.060711
v -5.328069 0.108443 -5.328069
v -2.404785 0.296815 -3.599014
v -4.186237 0.108443 -6.265146
v -1.656445 0.296815 -3.999010
v -2.883530 0.108443 -6.961457
v -0.844448 0.296815 -4.245327
v -1.470011 0.108443 -7.390244
vn -0.0000 -1.0000 -0.0000
vn 0.0058 0.9983 -0.0586
vn 0.0171 0.9983 -0.0564
vn 0.0278 0.9983 -0.0520
vn 0.0374 0.9983 -0.0456
vn 0.0456 0.9983 -0.0374
vn 0.0520 0.9983 -0.0278
vn 0.0564 0.9983 -0.0171
vn 0.0586 0.9983 -0.0058
vn 0.0586 0.9983 0.0058
vn 0.0564 0.9983 0.0171
vn 0.0520 0.9983 0.0278
vn 0.0456 0.9983 0.0374
vn 0.0374 0.9983 0.0456
vn 0.0278 0.9983 0.0520
vn 0.0171 0.9983 0.0564
vn 0.0058 0.9983 0.0586
vn -0.0058 0.9983 0.0586
vn -0.0171 0.9983 0.0564
vn -0.0278 0.9983 0.0520
vn -0.0374 0.9983 0.0456
vn -0.0456 0.9983 0.0374
vn -0.0520 0.9983 0.0278
vn -0.0564 0.9983 0.0171
vn -0.0586 0.9983 0.0058
vn -0.0586 0.9983 -0.0058
vn -0.0564 0.9983 -0.0171
vn -0.0520 0.9983 -0.0278
vn -0.0456 0.9983 -0.0374
vn -0.0374 0.9983 -0.0456
vn -0.0278 0.9983 -0.0520
vn -0.0171 0.9983 -0.0564
vn -0.0058 0.9983 -0.0586
vn -0.0000 1.0000 -0.0000
vn 0.0943 0.2741 -0.9571
vn -0.0943 0.2741 -0.9571
vn 0.2792 0.2741 -0.9203
vn 0.4533 0.2741 -0.8481
vn 0.6101 0.2741 -0.7434
vn 0.7434 0.2741 -0.6101
vn 0.8481 0.2741 -0.4533
vn 0.9203 0.2741 -0.2792
vn 0.9571 0.2741 -0.0943
vn 0.9571 0.2741 0.0943
vn 0.9203 0.2741 0.2792
vn 0.8481 0.2741 0.4533
vn 0.7434 0.2741 0.6101
vn 0.6101 0.2741 0.7434
vn 0.4533 0.2741 0.8481
vn 0.2792 0.2741 0.9203
vn 0.0943 0.2741 0.9571
vn -0.0943 0.2741 0.9571
vn -0.2792 0.2741 0.9203
vn -0.4533 0.2741 0.8481
vn -0.6101 0.2741 0.7434
vn -0.7434 0.2741 0.6101
vn -0.8481 0.2741 0.4533
vn -0.9203 0.2741 0.2792
vn -0.9571 0.2741 0.0943
vn -0.9571 0.2741 -0.0943
vn -0.9203 0.2741 -0.2792
vn -0.8481 0.2741 -0.4533
vn -0.7434 0.2741 -0.6101
vn -0.6101 0.2741 -0.7434
vn -0.4533 0.2741 -0.8481
vn -0.2792 0.2741 -0.9203
vt 0.750000 0.490000
vt 0.796822 0.485388
vt 0.841844 0.471731
vt 0.883337 0.449553
vt 0.919706 0.419706
vt 0.949553 0.383337
vt 0.971731 0.341844
vt 0.985388 0.296822
vt 0.990000 0.250000
vt 0.985388 0.203178
vt 0.971731 0.158156
vt 0.949553 0.116663
vt 0.919706 0.080294
vt 0.883337 0.050447
vt 0.841844 0.028269
vt 0.796822 0.014612
vt 0.750000 0.010000
vt 0.703178 0.014612
vt 0.658156 0.028269
vt 0.616663 0.050447
vt 0.580294 0.080294
vt 0.550447 0.116663
vt 0.528269 0.158156
vt 0.514612 0.203178
vt 0.510000 0.250000
vt 0.514612 0.296822
vt 0.528269 0.341844
vt 0.550447 0.383337
vt 0.580294 0.419706
vt 0.616663 0.449553
vt 0.658156 0.471731
vt 0.703178 0.485388
vt 0.296822 0.485388
vt 0.250000 0.490000
vt 0.250000 0.353072
vt 0.270108 0.351091
vt 0.341844 0.471731
vt 0.289444 0.345226
vt 0.383337 0.449553
vt 0.307264 0.335701
vt 0.419706 0.419706
vt 0.322883 0.322883
vt 0.449553 0.383337
vt 0.335701 0.307264
vt 0.471731 0.341844
vt 0.345226 0.289444
vt 0.485388 0.296822
vt 0.351091 0.270108
vt 0.490000 0.250000
vt 0.353072 0.250000
vt 0.485388 0.203178
vt 0.351091 0.229892
vt 0.471731 0.158156
vt 0.345226 0.210556
vt 0.449553 0.116663
vt 0.335701 0.192736
vt 0.419706 0.080294
vt 0.322883 0.177117
vt 0.383337 0.050447
vt 0.307264 0.164299
vt 0.341844 0.028269
vt 0.289444 0.154774
vt 0.296822 0.014612
vt 0.270108 0.148909
vt 0.250000 0.010000
vt 0.250000 0.146928
vt 0.203178 0.014612
vt 0.229892 0.148909
vt 0.158156 0.028269
vt 0.210556 0.154774
vt 0.116663 0.050447
vt 0.192736 0.164299
vt 0.080294 0.080294
vt 0.177117 0.177117
vt 0.050447 0.116663
vt 0.164299 0.192736
vt 0.028269 0.158156
vt 0.154774 0.210556
vt 0.014612 0.203178
vt 0.148909 0.229892
vt 0.010000 0.250000
vt 0.146928 0.250000
vt 0.014612 0.296822
vt 0.148909 0.270108
vt 0.028269 0.341844
vt 0.154774 0.289444
vt 0.050447 0.383337
vt 0.164299 0.307264
vt 0.080294 0.419706
vt 0.177117 0.322883
vt 0.116663 0.449553
vt 0.192736 0.335701
vt 0.158156 0.471731
vt 0.210556 0.345226
vt 0.203178 0.485388
vt 0.229892 0.351091
vt 1.000000 0.500000
vt 1.000000 0.858053
vt 0.968750 0.858053
vt 0.968750 0.500000
vt 0.031250 0.500000
vt 0.031250 0.858053
vt 0.000000 0.858053
vt 0.000000 0.500000
vt 0.937500 0.858053
vt 0.937500 0.500000
vt 0.906250 0.858053
vt 0.906250 0.500000
vt 0.875000 0.858053
vt 0.875000 0.500000
vt 0.843750 0.858053
vt 0.843750 0.500000
vt 0.812500 0.858053
vt 0.812500 0.500000
vt 0.781250 0.858053
vt 0.781250 0.500000
vt 0.750000 0.858053
vt 0.750000 0.500000
vt 0.718750 0.858053
vt 0.718750 0.500000
vt 0.687500 0.858053
vt 0.687500 0.500000
vt 0.656250 0.858053
vt 0.656250 0.500000
vt 0.625000 0.858053
vt 0.625000 0.500000
vt 0.593750 0.858053
vt 0.593750 0.500000
vt 0.562500 0.858053
vt 0.562500 0.500000
vt 0.531250 0.858053
vt 0.531250 0.500000
vt 0.500000 0.858053
vt 0.500000 0.500000
vt 0.468750 0.858053
vt 0.468750 0.500000
vt 0.437500 0.858053
vt 0.437500 0.500000
vt 0.406250 0.858053
vt 0.406250 0.500000
vt 0.375000 0.858053
vt 0.375000 0.500000
vt 0.343750 0.858053
vt 0.343750 0.500000
vt 0.312500 0.858053
vt 0.312500 0.500000
vt 0.281250 0.858053
vt 0.281250 0.500000
vt 0.250000 0.858053
vt 0.250000 0.500000
vt 0.218750 0.858053
vt 0.218750 0.500000
vt 0.187500 0.858053
vt 0.187500 0.500000
vt 0.156250 0.858053
vt 0.156250 0.500000
vt 0.125000 0.858053
vt 0.125000 0.500000
vt 0.093750 0.858053
vt 0.093750 0.500000
vt 0.062500 0.858053
vt 0.062500 0.500000
s 0
f 1/1/1 2/2/1 3/3/1 4/4/1 5/5/1 6/6/1 7/7/1 8/8/1 9/9/1 10/10/1 11/11/1 12/12/1 13/13/1 14/14/1 15/15/1 16/16/1 17/17/1 18/18/1 19/19/1 20/20/1 21/21/1 22/22/1 23/23/1 24/24/1 25/25/1 26/26/1 27/27/1 28/28/1 29/29/1 30/30/1 31/31/1 32/32/1
f 36/33/2 34/34/2 33/35/2 35/36/2
f 38/37/3 36/33/3 35/36/3 37/38/3
f 40/39/4 38/37/4 37/38/4 39/40/4
f 42/41/5 40/39/5 39/40/5 41/42/5
f 44/43/6 42/41/6 41/42/6 43/44/6
f 46/45/7 44/43/7 43/44/7 45/46/7
f 48/47/8 46/45/8 45/46/8 47/48/8
f 50/49/9 48/47/9 47/48/9 49/50/9
f 52/51/10 50/49/10 49/50/10 51/52/10
f 54/53/11 52/51/11 51/52/11 53/54/11
f 56/55/12 54/53/12 53/54/12 55/56/12
f 58/57/13 56/55/13 55/56/13 57/58/13
f 60/59/14 58/57/14 57/58/14 59/60/14
f 62/61/15 60/59/15 59/60/15 61/62/15
f 64/63/16 62/61/16 61/62/16 63/64/16
f 66/65/17 64/63/17 63/64/17 65/66/17
f 68/67/18 66/65/18 65/66/18 67/68/18
f 70/69/19 68/67/19 67/68/19 69/70/19
f 72/71/20 70/69/20 69/70/20 71/72/20
f 74/73/21 72/71/21 71/72/21 73/74/21
f 76/75/22 74/73/22 73/74/22 75/76/22
f 78/77/23 76/75/23 75/76/23 77/78/23
f 80/79/24 78/77/24 77/78/24 79/80/24
f 82/81/25 80/79/25 79/80/25 81/82/25
f 84/83/26 82/81/26 81/82/26 83/84/26
f 86/85/27 84/83/27 83/84/27 85/86/27
f 88/87/28 86/85/28 85/86/28 87/88/28
f 90/89/29 88/87/29 87/88/29 89/90/29
f 92/91/30 90/89/30 89/90/30 91/92/30
f 94/93/31 92/91/31 91/92/31 93/94/31
f 96/95/32 94/93/32 93/94/32 95/96/32
f 34/34/33 96/95/33 95/96/33 33/35/33
f 35/36/34 33/35/34 95/96/34 93/94/34 91/92/34 89/90/34 87/88/34 85/86/34 83/84/34 81/82/34 79/80/34 77/78/34 75/76/34 73/74/34 71/72/34 69/70/34 67/68/34 65/66/34 63/64/34 61/62/34 59/60/34 57/58/34 55/56/34 53/54/34 51/52/34 49/50/34 47/48/34 45/46/34 43/44/34 41/42/34 39/40/34 37/38/34
f 1/97/35 34/98/35 36/99/35 2/100/35
f 32/101/36 96/102/36 34/103/36 1/104/36
f 2/100/37 36/99/37 38/105/37 3/106/37
f 3/106/38 38/105/38 40/107/38 4/108/38
f 4/108/39 40/107/39 42/109/39 5/110/39
f 5/110/40 42/109/40 44/111/40 6/112/40
f 6/112/41 44/111/41 46/113/41 7/114/41
f 7/114/42 46/113/42 48/115/42 8/116/42
f 8/116/43 48/115/43 50/117/43 9/118/43
f 9/118/44 50/117/44 52/119/44 10/120/44
f 10/120/45 52/119/45 54/121/45 11/122/45
f 11/122/46 54/121/46 56/123/46 12/124/46
f 12/124/47 56/123/47 58/125/47 13/126/47
f 13/126/48 58/125/48 60/127/48 14/128/48
f 14/128/49 60/127/49 62/129/49 15/130/49
f 15/130/50 62/129/50 64/131/50 16/132/50
f 16/132/51 64/131/51 66/133/51 17/134/51
f 17/134/52 66/133/52 68/135/52 18/136/52
f 18/136/53 68/135/53 70/137/53 19/138/53
f 19/138/54 70/137/54 72/139/54 20/140/54
f 20/140/55 72/139/55 74/141/55 21/142/55
f 21/142/56 74/141/56 76/143/56 22/144/56
f 22/144/57 76/143/57 78/145/57 23/146/57
f 23/146/58 78/145/58 80/147/58 24/148/58
f 24/148/59 80/147/59 82/149/59 25/150/59
f 25/150/60 82/149/60 84/151/60 26/152/60
f 26/152/61 84/151/61 86/153/61 27/154/61
f 27/154/62 86/153/62 88/155/62 28/156/62
f 28/156/63 88/155/63 90/157/63 29/158/63
f 29/158/64 90/157/64 92/159/64 30/160/64
f 30/160/65 92/159/65 94/161/65 31/162/65
f 31/162/66 94/161/66 96/102/66 32/101/66
